<svg version="1.1" id="Layer_1" xmlns="http://www.w3.org/2000/svg" xmlns:xlink="http://www.w3.org/1999/xlink" x="0px" y="0px" width="16px" height="16px" viewBox="0 0 613 613" enable-background="new 0 0 613 613" xml:space="preserve" fill="currentColor"><path d="M305.496,26.403c-151.577,0-274.453,122.876-274.453,274.453c0,30.365,4.942,59.573,14.047,86.877	c47.995-28.929,90.86-49.205,128.562-62.188c-42.737,6.712-79.38,28.258-131.302,4.756c37.714-33.186,104.809-78.699,165.59-85.651	c31.774-25.837,81.433-52.545,107.183-44.559c36.448-32.121,81.253-73.019,129.236-102.492l0.001,0.001	c12.751,19.311,20.453,42.966,15,69.183c-96.067,24.151-73.716,178.02,16.124,80.614c7.586,15.617,11.245,31.848,10.868,49.505	c-39.057,40.438-80.051,75.369-121.846,105.108c0.556,28.674-6.724,63.25-22.734,101.378c-6.735,16.038-8.764,43.507,27.331,64.499	c120.904-28.692,210.848-137.35,210.848-267.029C579.949,149.279,457.073,26.403,305.496,26.403z"></path></svg>