<svg xmlns="http://www.w3.org/2000/svg" width="2em" height="2em" viewBox="0 0 32 32">
  <g fill="none">
    <path fill="#6D4534" d="M26.714 2a4.79 4.79 0 0 1-1.146 3.122A6.124 6.124 0 0 1 27 9.062c0 1.528-.307 2.727-.86 3.666c.554 1.314.86 2.757.86 4.272a11 11 0 0 1-5.933 9.766l.12 1.234l-5.228.53l-5.15-.53l.123-1.235A10.999 10.999 0 0 1 5 17c0-1.546.319-3.017.894-4.351c-.524-.927-.814-2.102-.814-3.588c0-1.5.543-2.877 1.432-3.939A4.81 4.81 0 0 1 5.366 2h5.649c1.077 0 1.987.357 2.768 1h4.504c.78-.643 1.634-1 2.71-1z" />
    <path fill="#FFDEA7" d="M7.84 14.596C9.78 15.74 12.573 16 15.67 16h.74c3.061 0 5.828-.253 7.765-1.366c.295.858.455 1.779.455 2.736C24.63 22.064 20.77 28 16 28c-4.77 0-8.63-5.936-8.63-10.63c0-.97.165-1.904.47-2.774" />
    <path fill="#FF822D" d="M14.545 13h2.99a1.5 1.5 0 0 0-1.49-1.5c-.827 0-1.5.673-1.5 1.5M16 28c1.83 0 3.556-.447 5.074-1.238c.47.737.783 1.582.895 2.49c.05.41-.29.748-.704.748h-10.53c-.414 0-.755-.337-.704-.748a5.985 5.985 0 0 1 .897-2.488A10.953 10.953 0 0 0 16 28" />
    <path fill="#1C1C1C" d="M14 9a4 4 0 1 1-8 0a4 4 0 0 1 8 0m12 0a4 4 0 1 1-8 0a4 4 0 0 1 8 0" />
    <path fill="#FCD53F" d="M13.748 9.514a3.305 3.305 0 1 1-6.61 0a3.305 3.305 0 0 1 6.61 0m11.093 0a3.305 3.305 0 1 1-6.61 0a3.305 3.305 0 0 1 6.61 0" />
    <path fill="#533566" d="M12.479 9.514a2.035 2.035 0 1 1-4.071 0a2.035 2.035 0 0 1 4.07 0m11.094 0a2.035 2.035 0 1 1-4.07 0a2.035 2.035 0 0 1 4.07 0" />
  </g>
</svg>